# xmcd CD database file
#
# Track frame offsets:
#	150
#	15172
#	30600
#	51842
#	65941
#	84950
#	99225
#	110905
#	125708
#	142344
#	154826
#	167432
#	179632
#	190106
#
# Disc length: 2651 seconds
#
# Revision: 3
# Processed by: cddbd v1.5.1PL0 Copyright (c) Steve Scherf et al.
# Submitted via: cdripper 1.0.9
#
DISCID=c10a590e
DTITLE=Various Artist - Jazz Moods disc 2
DYEAR=2000
DGENRE=Jazz
TTITLE0=Louis Armstrong - St. James Infirmary
TTITLE1=Dinah Washington - Smoke Gets In Your Eyes
TTITLE2=Lionel Hampton, Dinah Washington - Close To You
TTITLE3=Billie Holiday - Carelessly
TTITLE4=Ella Fitzgerald, Louis Armstrong - Let's Call The Whole Thing Off
TTITLE5=Nat King Cole - Don't Get Around Much Anymore
TTITLE6=Sara Vaughan - Whatever Lola Wants
TTITLE7=Ben Webster - Honeysuckle Rose
TTITLE8=Ella Fitzgerald, Louis Armstrong - Moonlight In Vermont
TTITLE9=The Andrews Sisters - Don't Be That Way
TTITLE10=Lena Horne - Sometimes I Feel Like A Motherless Child
TTITLE11=Peggy Lee - I've Got The World On A String
TTITLE12=Tony Bennet, Count Basie - Anything Goes
TTITLE13=Ella Fitzgerald - Love Come Back To Me
EXTD=YEAR: 2000
EXTT0=
EXTT1=
EXTT2=
EXTT3=
EXTT4=
EXTT5=
EXTT6=
EXTT7=
EXTT8=
EXTT9=
EXTT10=
EXTT11=
EXTT12=
EXTT13=
PLAYORDER=
